<svg width="38" height="30" viewBox="0 0 38 30" fill="none" xmlns="http://www.w3.org/2000/svg">
<path d="M35.8498 6.36657C34.2006 2.87398 30.8366 0.457219 27.0449 0.17145C25.187 -0.00182217 23.2699 0.313688 21.5949 1.16065C20.4702 1.72055 19.4691 2.49769 18.6278 3.42353C16.8923 1.44772 14.4392 0.155933 11.7928 0.0214529C6.2295 -0.313453 1.43408 3.30069 0.265506 8.91263C-0.444402 12.2733 0.329926 15.7827 1.86699 18.7387C3.40147 21.6546 5.64071 24.2472 8.55377 25.7705C10.5869 26.7635 12.4924 24.2446 11.0056 22.4835C10.5315 21.9507 10.0947 21.3843 9.69658 20.7792C9.32681 20.218 8.9944 19.6283 8.69292 19.0245C7.85546 17.3021 7.23059 15.3625 7.1069 13.4526C7.03346 12.2384 7.19194 11.1923 7.69441 10.1359C8.16983 9.15056 8.94029 8.3036 9.95168 7.90533C11.5248 7.30664 13.1662 7.62861 14.3619 8.92169C15.1388 9.72469 15.4944 10.8484 15.8912 11.8854C15.9208 11.9604 15.953 12.0328 15.9865 12.1039C16.7763 14.5491 20.3967 14.6112 21.0731 11.8298C21.0938 11.7354 21.1144 11.6397 21.1363 11.5427C21.1401 11.5272 21.144 11.513 21.1479 11.4975C21.1517 11.482 21.1543 11.4665 21.1582 11.4496C21.2162 11.2014 21.2832 10.9531 21.3695 10.7216C21.6387 9.97554 22.0871 9.2553 22.6257 8.70574C23.4374 7.87688 24.4719 7.37646 25.6044 7.48767C26.2383 7.52387 26.9534 7.69714 27.4688 7.97774C30.3599 9.55141 30.0584 13.6867 28.819 16.4112C27.948 18.3198 26.554 19.9167 25.0079 21.2964C24.6253 21.6365 24.1885 22.0115 23.793 22.3283C21.9802 23.7416 21.5164 26.417 22.9491 28.3346C24.4861 30.4423 27.5473 30.5445 29.306 28.6695C29.6513 28.3269 29.985 27.9713 30.3135 27.6131C33.6312 23.8942 36.646 18.3741 37.115 13.2871C37.3083 10.9091 36.8869 8.53247 35.8472 6.36786L35.8498 6.36657Z" fill="white"/>
<path d="M35.8498 6.36657C34.2006 2.87398 30.8366 0.457219 27.0449 0.17145C25.187 -0.00182217 23.2699 0.313688 21.5949 1.16065C20.4702 1.72055 19.4691 2.49769 18.6278 3.42353C16.8923 1.44772 14.4392 0.155933 11.7928 0.0214529C6.2295 -0.313453 1.43408 3.30069 0.265506 8.91263C-0.444402 12.2733 0.329926 15.7827 1.86699 18.7387C3.40147 21.6546 5.64071 24.2472 8.55377 25.7705C10.5869 26.7635 12.4924 24.2446 11.0056 22.4835C10.5315 21.9507 10.0947 21.3843 9.69658 20.7792C9.32681 20.218 8.9944 19.6283 8.69292 19.0245C7.85546 17.3021 7.23059 15.3625 7.1069 13.4526C7.03346 12.2384 7.19194 11.1923 7.69441 10.1359C8.16983 9.15056 8.94029 8.3036 9.95168 7.90533C11.5248 7.30664 13.1662 7.62861 14.3619 8.92169C15.1388 9.72469 15.4944 10.8484 15.8912 11.8854C15.9208 11.9604 15.953 12.0328 15.9865 12.1039C16.7763 14.5491 20.3967 14.6112 21.0731 11.8298C21.0938 11.7354 21.1144 11.6397 21.1363 11.5427C21.1401 11.5272 21.144 11.513 21.1479 11.4975C21.1517 11.482 21.1543 11.4665 21.1582 11.4496C21.2162 11.2014 21.2832 10.9531 21.3695 10.7216C21.6387 9.97554 22.0871 9.2553 22.6257 8.70574C23.4374 7.87688 24.4719 7.37646 25.6044 7.48767C26.2383 7.52387 26.9534 7.69714 27.4688 7.97774C30.3599 9.55141 30.0584 13.6867 28.819 16.4112C27.948 18.3198 26.554 19.9167 25.0079 21.2964C24.6253 21.6365 24.1885 22.0115 23.793 22.3283C21.9802 23.7416 21.5164 26.417 22.9491 28.3346C24.4861 30.4423 27.5473 30.5445 29.306 28.6695C29.6513 28.3269 29.985 27.9713 30.3135 27.6131C33.6312 23.8942 36.646 18.3741 37.115 13.2871C37.3083 10.9091 36.8869 8.53247 35.8472 6.36786L35.8498 6.36657Z" fill="url(#paint0_radial_4901_3953)"/>
<defs>
<radialGradient id="paint0_radial_4901_3953" cx="0" cy="0" r="1" gradientUnits="userSpaceOnUse" gradientTransform="translate(25.5887 26.4236) rotate(-131.431) scale(30.8421 46.8135)">
<stop stop-color="#33FFCC"/>
<stop offset="1" stop-color="#0F7FFF"/>
</radialGradient>
</defs>
</svg>
