<svg width="153" height="22" viewBox="0 0 153 22" fill="none" xmlns="http://www.w3.org/2000/svg">
<path d="M13.295 4.99643C14.6555 4.99643 15.7481 5.4322 16.5714 6.30373C17.3947 7.17526 17.8057 8.33515 17.8057 9.78469V16.8863H14.2445V10.086C14.2445 9.50021 14.0976 9.03729 13.8052 8.69851C13.5127 8.35972 13.0888 8.18904 12.5348 8.18904C11.9486 8.18904 11.4938 8.3817 11.1704 8.76704C10.8457 9.15238 10.6834 9.68512 10.6834 10.3627V16.8863H7.12227V10.086C7.12227 9.50021 6.97538 9.03729 6.68292 8.69851C6.39045 8.35972 5.96657 8.18904 5.41256 8.18904C4.82634 8.18904 4.37153 8.3817 4.04814 8.76704C3.72347 9.15238 3.56113 9.68512 3.56113 10.3627V16.8863H0V5.3197H3.56113V6.3839C4.21048 5.45806 5.27083 4.99643 6.74219 4.99643C8.11948 4.99643 9.15535 5.50591 9.85237 6.52355C10.5803 5.50591 11.7283 4.99643 13.295 4.99643Z" fill="#FFFFFE"/>
<path d="M30.2915 15.4406C29.0727 16.6199 27.5846 17.2108 25.8285 17.2108C24.0724 17.2108 22.5843 16.6212 21.3655 15.4406C20.1467 14.2613 19.5373 12.8157 19.5373 11.1036C19.5373 9.39161 20.1467 7.94595 21.3655 6.76667C22.5843 5.58738 24.0724 4.99774 25.8285 4.99774C27.5846 4.99774 29.0727 5.58738 30.2915 6.76667C31.5104 7.94595 32.1198 9.39161 32.1198 11.1036C32.1198 12.8157 31.5104 14.2613 30.2915 15.4406ZM23.8818 13.0691C24.4036 13.5786 25.0529 13.832 25.8285 13.832C26.6041 13.832 27.2522 13.5773 27.7753 13.0691C28.2971 12.5596 28.5586 11.9053 28.5586 11.1023C28.5586 10.2993 28.2971 9.64505 27.7753 9.13558C27.2535 8.62611 26.6041 8.37266 25.8285 8.37266C25.0529 8.37266 24.4036 8.6274 23.8818 9.13558C23.36 9.64376 23.0984 10.3006 23.0984 11.1023C23.0984 11.9041 23.36 12.5596 23.8818 13.0691Z" fill="#FFFFFE"/>
<path d="M37.4885 16.8875H33.7045V5.25763H37.2991V8.06102C37.8699 5.91581 39.3696 4.9654 40.7984 4.9654C41.2738 4.9654 41.7982 4.98997 42.4411 5.2822L41.5135 8.93902C40.7275 8.64678 40.1568 8.64678 39.7999 8.64678C38.3723 8.64678 37.4911 9.47564 37.4911 12.8881V16.8888L37.4885 16.8875Z" fill="#FFFFFE"/>
<path d="M51.8761 5.3197H55.4372V16.8862H51.8761V15.5169C51.4264 16.6806 49.8585 17.2095 48.3394 17.2095C46.8204 17.2095 45.4354 16.6199 44.3274 15.4393C43.2193 14.26 42.6653 12.8144 42.6653 11.1023C42.6653 9.3903 43.2193 7.94464 44.3274 6.76536C45.4354 5.58607 46.7727 4.96928 48.3394 4.99643C51.0399 5.04298 51.9418 6.33606 51.8761 6.98259V5.3197ZM47.0098 13.1609C47.5316 13.6704 48.2119 13.9238 49.0519 13.9238C49.8919 13.9238 50.5709 13.6691 51.094 13.1609C51.6171 12.6527 51.8774 11.9661 51.8774 11.1023C51.8774 10.2386 51.6158 9.55193 51.094 9.04376C50.5722 8.53558 49.8907 8.28084 49.0519 8.28084C48.2132 8.28084 47.5329 8.53558 47.0098 9.04376C46.488 9.55323 46.2264 10.2386 46.2264 11.1023C46.2264 11.9661 46.488 12.6527 47.0098 13.1609Z" fill="#FFFFFE"/>
<path d="M58.0694 16.8863V0H61.6305V16.8863H58.0694Z" fill="#FFFFFE"/>
<path d="M67.5958 3.68913C67.1758 4.09774 66.6733 4.30205 66.0884 4.30205C65.5034 4.30205 64.9997 4.09774 64.581 3.68913C64.1609 3.28052 63.9522 2.79044 63.9522 2.2202C63.9522 1.64995 64.1622 1.15988 64.581 0.751266C64.9997 0.342654 65.5022 0.138349 66.0884 0.138349C66.6746 0.138349 67.1758 0.342654 67.5958 0.751266C68.0145 1.15988 68.2246 1.64995 68.2246 2.2202C68.2246 2.79044 68.0145 3.28052 67.5958 3.68913ZM64.3078 16.8862V5.3197H67.869V16.8862H64.3078Z" fill="#FFFFFE"/>
<path d="M73.8561 8.69722C73.8561 8.92868 74.0584 9.11747 74.4617 9.26359C74.865 9.40971 75.352 9.55712 75.9214 9.70324C76.4909 9.84935 77.0604 10.0381 77.6312 10.2696C78.2006 10.5011 78.6876 10.8825 79.0909 11.414C79.4942 11.9454 79.6965 12.6127 79.6965 13.4144C79.6965 14.6635 79.221 15.6087 78.2715 16.2475C77.3219 16.8876 76.1508 17.2069 74.758 17.2069C72.2572 17.2069 70.5566 16.2902 69.6547 14.454L72.7404 12.742C73.0573 13.6523 73.7286 14.1062 74.758 14.1062C75.6122 14.1062 76.04 13.8669 76.04 13.3885C76.04 13.157 75.8377 12.9644 75.4344 12.8105C75.0312 12.6566 74.5442 12.5066 73.9747 12.3592C73.4052 12.2131 72.8357 12.0204 72.265 11.7812C71.6955 11.542 71.2085 11.1683 70.8052 10.6588C70.4019 10.1493 70.1997 9.52479 70.1997 8.78516C70.1997 7.5826 70.6467 6.64899 71.5409 5.98565C72.435 5.3223 73.5392 4.99127 74.8521 4.99127C75.8338 4.99127 76.728 5.20334 77.5345 5.62747C78.3411 6.0516 78.9904 6.66451 79.4813 7.46622L76.4433 9.06187C76.0632 8.38301 75.5324 8.04422 74.8521 8.04422C74.1718 8.04422 73.8549 8.26017 73.8549 8.69205L73.8561 8.69722Z" fill="#FFFFFE"/>
<path d="M85.4242 5.28347H87.6499V7.24748C87.7808 6.95652 87.9554 6.6801 88.1736 6.41823C88.3918 6.14182 88.6391 5.90177 88.9155 5.6981C89.2065 5.49442 89.5192 5.33439 89.8538 5.21801C90.1884 5.10162 90.5448 5.04343 90.923 5.04343C91.8832 5.04343 92.6324 5.2471 93.1706 5.65445C93.7089 6.0618 94.0798 6.59281 94.2835 7.24748C94.6181 6.59281 95.0836 6.0618 95.68 5.65445C96.291 5.2471 96.9965 5.04343 97.7966 5.04343C99.0041 5.04343 99.9351 5.39986 100.59 6.11272C101.244 6.82558 101.572 7.93125 101.572 9.42972V16.8493H99.1714V9.97527C99.1714 8.94235 98.975 8.21494 98.5822 7.79304C98.204 7.35659 97.6875 7.13837 97.0329 7.13837C96.2474 7.13837 95.6582 7.40751 95.2654 7.9458C94.8872 8.46953 94.6981 9.14602 94.6981 9.97527V16.8493H92.2978V9.97527C92.2978 8.94235 92.1014 8.21494 91.7086 7.79304C91.3304 7.35659 90.8139 7.13837 90.1593 7.13837C89.3738 7.13837 88.7846 7.40751 88.3918 7.9458C88.0136 8.46953 87.8245 9.14602 87.8245 9.97527V16.8493H85.4242V5.28347Z" fill="#FFFFFE"/>
<path d="M109.144 17.0894C108.343 17.0894 107.594 16.9657 106.896 16.7184C106.212 16.4565 105.616 16.0783 105.107 15.5836C104.598 15.089 104.197 14.478 103.907 13.7505C103.616 13.0086 103.47 12.1502 103.47 11.1755V10.7391C103.47 9.82252 103.616 9.01509 103.907 8.31678C104.197 7.60391 104.598 7.00744 105.107 6.52735C105.616 6.03271 106.212 5.66172 106.896 5.4144C107.594 5.16709 108.343 5.04343 109.144 5.04343C109.944 5.04343 110.686 5.16709 111.369 5.4144C112.068 5.66172 112.671 6.03271 113.18 6.52735C113.69 7.00744 114.09 7.60391 114.381 8.31678C114.672 9.01509 114.817 9.82252 114.817 10.7391V11.1755C114.817 12.1502 114.672 13.0086 114.381 13.7505C114.09 14.478 113.69 15.089 113.18 15.5836C112.671 16.0783 112.068 16.4565 111.369 16.7184C110.686 16.9657 109.944 17.0894 109.144 17.0894ZM109.144 14.9944C109.565 14.9944 109.965 14.9217 110.344 14.7762C110.736 14.6307 111.078 14.4052 111.369 14.0997C111.675 13.7942 111.915 13.4014 112.089 12.9213C112.278 12.4412 112.373 11.8593 112.373 11.1755V10.7391C112.373 10.1135 112.278 9.5752 112.089 9.1242C111.915 8.67321 111.675 8.30223 111.369 8.01126C111.078 7.7203 110.736 7.50208 110.344 7.35659C109.965 7.21111 109.565 7.13837 109.144 7.13837C108.722 7.13837 108.314 7.21111 107.922 7.35659C107.543 7.50208 107.201 7.7203 106.896 8.01126C106.605 8.30223 106.365 8.67321 106.176 9.1242C106.001 9.5752 105.914 10.1135 105.914 10.7391V11.1755C105.914 11.8593 106.001 12.4412 106.176 12.9213C106.365 13.4014 106.605 13.7942 106.896 14.0997C107.201 14.4052 107.543 14.6307 107.922 14.7762C108.314 14.9217 108.722 14.9944 109.144 14.9944Z" fill="#FFFFFE"/>
<path d="M116.816 5.28347H119.042V7.22566C119.318 6.64373 119.769 6.13454 120.395 5.6981C121.02 5.26165 121.828 5.04343 122.817 5.04343C124.228 5.04343 125.29 5.42896 126.003 6.20001C126.715 6.95652 127.072 8.06946 127.072 9.53883V16.8493H124.672V10.0844C124.672 9.10965 124.468 8.37497 124.061 7.88033C123.653 7.38569 122.984 7.13837 122.053 7.13837C121.544 7.13837 121.107 7.22566 120.744 7.40024C120.395 7.56027 120.104 7.77849 119.871 8.05491C119.653 8.31678 119.485 8.62956 119.369 8.99327C119.267 9.34243 119.216 9.70613 119.216 10.0844V16.8493H116.816V5.28347Z" fill="#FFFFFE"/>
<path d="M134.654 17.0894C133.883 17.0894 133.156 16.973 132.472 16.7402C131.788 16.4929 131.184 16.1292 130.661 15.6491C130.152 15.1544 129.744 14.5361 129.439 13.7942C129.133 13.0522 128.98 12.1793 128.98 11.1755V10.7391C128.98 9.77887 129.126 8.94235 129.417 8.22949C129.708 7.51663 130.101 6.92742 130.595 6.46188C131.104 5.98179 131.686 5.62536 132.341 5.39258C132.996 5.15981 133.694 5.04343 134.436 5.04343C136.196 5.04343 137.542 5.51624 138.473 6.46188C139.418 7.40751 139.891 8.7605 139.891 10.5208V11.7429H131.424C131.439 12.3394 131.534 12.8485 131.708 13.2704C131.897 13.6778 132.137 14.0124 132.428 14.2743C132.734 14.5216 133.076 14.7034 133.454 14.8198C133.847 14.9362 134.247 14.9944 134.654 14.9944C135.483 14.9944 136.087 14.8635 136.465 14.6016C136.858 14.3397 137.127 13.9979 137.272 13.576H139.673C139.44 14.7253 138.865 15.5982 137.949 16.1946C137.047 16.7911 135.949 17.0894 134.654 17.0894ZM134.545 7.13837C134.138 7.13837 133.745 7.18929 133.366 7.29113C133.003 7.39297 132.675 7.56027 132.385 7.79304C132.108 8.01126 131.883 8.30223 131.708 8.66593C131.534 9.01509 131.439 9.44427 131.424 9.95345H137.491C137.476 9.41517 137.389 8.96417 137.229 8.60047C137.083 8.23676 136.88 7.9458 136.618 7.72757C136.356 7.50935 136.043 7.35659 135.68 7.2693C135.33 7.18201 134.952 7.13837 134.545 7.13837Z" fill="#FFFFFE"/>
<path d="M143.329 21.4538C143.111 21.4538 142.892 21.432 142.674 21.3884V19.2934C142.892 19.3371 143.111 19.3589 143.329 19.3589C143.576 19.3589 143.78 19.3152 143.94 19.2279C144.114 19.1552 144.267 19.017 144.398 18.8133C144.543 18.6242 144.682 18.3696 144.813 18.0495C144.958 17.7295 145.118 17.3294 145.293 16.8493L140.383 5.28347H143.001L146.536 14.2306L149.722 5.28347H152.166L147.693 16.8493C147.373 17.664 147.075 18.3623 146.798 18.9443C146.522 19.5262 146.216 19.999 145.882 20.3627C145.562 20.741 145.198 21.0174 144.791 21.192C144.383 21.3665 143.896 21.4538 143.329 21.4538Z" fill="#FFFFFE"/>
</svg>
